<?xml version="1.0" encoding="UTF-8" standalone="no"?>
<!-- Created with Inkscape (http://www.inkscape.org/) -->

<svg
   width="219.39317mm"
   height="196.20013mm"
   viewBox="0 0 219.39316 196.20013"
   version="1.1"
   id="svg1"
   xml:space="preserve"
   xmlns:xlink="http://www.w3.org/1999/xlink"
   xmlns="http://www.w3.org/2000/svg"
   xmlns:svg="http://www.w3.org/2000/svg"><defs
     id="defs1"><linearGradient
       id="linearGradient5"><stop
         style="stop-color:#162238;stop-opacity:1;"
         offset="0"
         id="stop5" /><stop
         style="stop-color:#652740;stop-opacity:1;"
         offset="1"
         id="stop6" /></linearGradient><linearGradient
       xlink:href="#linearGradient5"
       id="linearGradient6"
       x1="100.91477"
       y1="142.84563"
       x2="100.43911"
       y2="255.8232"
       gradientUnits="userSpaceOnUse"
       gradientTransform="translate(-0.45555448,0.45555061)" /><filter
       style="color-interpolation-filters:sRGB"
       id="filter383"
       x="-0.47175708"
       y="-1.128517"
       width="1.9435142"
       height="3.2570339"><feGaussianBlur
         stdDeviation="43.630287"
         id="feGaussianBlur383" /></filter></defs><g
     id="layer1"
     transform="translate(4.6124138,-62.363888)"><rect
       style="fill:url(#linearGradient6);stroke:#215047;stroke-width:0.323001;stroke-linecap:round;stroke-linejoin:round;stroke-miterlimit:0;paint-order:markers fill stroke"
       id="rect5"
       width="219.6898"
       height="196.49673"
       x="-5.0679688"
       y="62.819443" /><path
       style="fill:#ffffff;stroke:#215047;stroke-width:0.323001;stroke-linecap:round;stroke-linejoin:round;stroke-miterlimit:0;paint-order:markers fill stroke"
       id="use321"
       d="m 26.365305,91.974942 c -0.02471,0 -4.009102,-7.344824 -4.026573,-7.362295 -0.01747,-0.01747 -7.362294,-4.001865 -7.362294,-4.026572 0,-0.02471 7.344824,-4.009102 7.362294,-4.026573 0.01747,-0.01747 4.001866,-7.362295 4.026573,-7.362295 0.02471,0 4.009102,7.344825 4.026573,7.362295 0.01747,0.01747 7.362294,4.001866 7.362294,4.026573 0,0.02471 -7.344824,4.009102 -7.362294,4.026573 -0.01747,0.01747 -4.001866,7.362294 -4.026573,7.362294 z"
       transform="matrix(0.2549785,0,0,0.2549785,46.021778,56.119977)" /><path
       style="fill:#ffffff;stroke:#215047;stroke-width:0.323001;stroke-linecap:round;stroke-linejoin:round;stroke-miterlimit:0;paint-order:markers fill stroke"
       id="use347"
       d="m 55.976362,80.130521 c -0.0089,0.008 -3.768435,-1.509082 -3.780353,-1.507832 -0.01192,0.0012 -3.374878,2.265345 -3.385255,2.259351 -0.01038,-0.006 0.270712,-4.050326 0.26584,-4.061275 -0.0049,-0.01095 -3.197365,-2.50967 -3.194871,-2.521391 0.0025,-0.01172 3.935743,-0.994157 3.94465,-1.002174 0.0089,-0.008 1.398799,-3.816406 1.410716,-3.817656 0.01192,-0.0012 2.161712,3.435903 2.172088,3.441897 0.01038,0.006 4.061871,0.151002 4.066742,0.16195 0.0049,0.01095 -2.599732,3.117662 -2.602226,3.129383 -0.0025,0.01172 1.111576,3.909731 1.102669,3.917747 z"
       transform="matrix(0.44991781,0,0,0.41713779,172.43457,46.345435)" /><rect
       style="opacity:0.72619;mix-blend-mode:normal;fill:#151523;fill-opacity:1;stroke:#215047;stroke-width:0.327899;stroke-linecap:round;stroke-linejoin:round;stroke-miterlimit:0;paint-order:markers fill stroke;filter:url(#filter383)"
       id="rect383"
       width="222.31068"
       height="92.933151"
       x="43.676384"
       y="117.94156" /><path
       style="fill:#ffffff;stroke:#215047;stroke-width:0.323001;stroke-linecap:round;stroke-linejoin:round;stroke-miterlimit:0;paint-order:markers fill stroke"
       id="path383"
       d="m 55.976362,80.130521 c -0.0089,0.008 -3.768435,-1.509082 -3.780353,-1.507832 -0.01192,0.0012 -3.374878,2.265345 -3.385255,2.259351 -0.01038,-0.006 0.270712,-4.050326 0.26584,-4.061275 -0.0049,-0.01095 -3.197365,-2.50967 -3.194871,-2.521391 0.0025,-0.01172 3.935743,-0.994157 3.94465,-1.002174 0.0089,-0.008 1.398799,-3.816406 1.410716,-3.817656 0.01192,-0.0012 2.161712,3.435903 2.172088,3.441897 0.01038,0.006 4.061871,0.151002 4.066742,0.16195 0.0049,0.01095 -2.599732,3.117662 -2.602226,3.129383 -0.0025,0.01172 1.111576,3.909731 1.102669,3.917747 z"
       transform="matrix(0.44991781,0,0,0.41713779,-12.065079,43.612106)" /><path
       style="fill:#ffffff;stroke:#215047;stroke-width:0.323001;stroke-linecap:round;stroke-linejoin:round;stroke-miterlimit:0;paint-order:markers fill stroke"
       id="path384"
       d="m 55.976362,80.130521 c -0.0089,0.008 -3.768435,-1.509082 -3.780353,-1.507832 -0.01192,0.0012 -3.374878,2.265345 -3.385255,2.259351 -0.01038,-0.006 0.270712,-4.050326 0.26584,-4.061275 -0.0049,-0.01095 -3.197365,-2.50967 -3.194871,-2.521391 0.0025,-0.01172 3.935743,-0.994157 3.94465,-1.002174 0.0089,-0.008 1.398799,-3.816406 1.410716,-3.817656 0.01192,-0.0012 2.161712,3.435903 2.172088,3.441897 0.01038,0.006 4.061871,0.151002 4.066742,0.16195 0.0049,0.01095 -2.599732,3.117662 -2.602226,3.129383 -0.0025,0.01172 1.111576,3.909731 1.102669,3.917747 z"
       transform="matrix(0.44991781,0,0,0.41713779,80.868079,64.567622)" /><path
       style="fill:#ffffff;stroke:#215047;stroke-width:0.323001;stroke-linecap:round;stroke-linejoin:round;stroke-miterlimit:0;paint-order:markers fill stroke"
       id="path385"
       d="m 26.365305,91.974942 c -0.02471,0 -4.009102,-7.344824 -4.026573,-7.362295 -0.01747,-0.01747 -7.362294,-4.001865 -7.362294,-4.026572 0,-0.02471 7.344824,-4.009102 7.362294,-4.026573 0.01747,-0.01747 4.001866,-7.362295 4.026573,-7.362295 0.02471,0 4.009102,7.344825 4.026573,7.362295 0.01747,0.01747 7.362294,4.001866 7.362294,4.026573 0,0.02471 -7.344824,4.009102 -7.362294,4.026573 -0.01747,0.01747 -4.001866,7.362294 -4.026573,7.362294 z"
       transform="matrix(0.2549785,0,0,0.2549785,136.22161,54.753309)" /><path
       style="fill:#ffffff;stroke:#215047;stroke-width:0.323001;stroke-linecap:round;stroke-linejoin:round;stroke-miterlimit:0;paint-order:markers fill stroke"
       id="path386"
       d="m 26.365305,91.974942 c -0.02471,0 -4.009102,-7.344824 -4.026573,-7.362295 -0.01747,-0.01747 -7.362294,-4.001865 -7.362294,-4.026572 0,-0.02471 7.344824,-4.009102 7.362294,-4.026573 0.01747,-0.01747 4.001866,-7.362295 4.026573,-7.362295 0.02471,0 4.009102,7.344825 4.026573,7.362295 0.01747,0.01747 7.362294,4.001866 7.362294,4.026573 0,0.02471 -7.344824,4.009102 -7.362294,4.026573 -0.01747,0.01747 -4.001866,7.362294 -4.026573,7.362294 z"
       transform="matrix(0.2549785,0,0,0.2549785,15.499612,80.719927)" /><rect
       style="opacity:0.72619;mix-blend-mode:normal;fill:#151523;fill-opacity:1;stroke:#215047;stroke-width:0.327899;stroke-linecap:round;stroke-linejoin:round;stroke-miterlimit:0;paint-order:markers fill stroke;filter:url(#filter383)"
       id="rect386"
       width="222.31068"
       height="92.933151"
       x="-5.5235224"
       y="64.186104" /><path
       style="fill:#ffffff;stroke:#215047;stroke-width:0.323001;stroke-linecap:round;stroke-linejoin:round;stroke-miterlimit:0;paint-order:markers fill stroke"
       id="path387"
       d="m 55.976362,80.130521 c -0.0089,0.008 -3.768435,-1.509082 -3.780353,-1.507832 -0.01192,0.0012 -3.374878,2.265345 -3.385255,2.259351 -0.01038,-0.006 0.270712,-4.050326 0.26584,-4.061275 -0.0049,-0.01095 -3.197365,-2.50967 -3.194871,-2.521391 0.0025,-0.01172 3.935743,-0.994157 3.94465,-1.002174 0.0089,-0.008 1.398799,-3.816406 1.410716,-3.817656 0.01192,-0.0012 2.161712,3.435903 2.172088,3.441897 0.01038,0.006 4.061871,0.151002 4.066742,0.16195 0.0049,0.01095 -2.599732,3.117662 -2.602226,3.129383 -0.0025,0.01172 1.111576,3.909731 1.102669,3.917747 z"
       transform="matrix(0.44991781,0,0,0.41713779,137.81242,66.845395)" /><path
       style="fill:#ffffff;stroke:#215047;stroke-width:0.323001;stroke-linecap:round;stroke-linejoin:round;stroke-miterlimit:0;paint-order:markers fill stroke"
       id="path388"
       d="m 55.976362,80.130521 c -0.0089,0.008 -3.768435,-1.509082 -3.780353,-1.507832 -0.01192,0.0012 -3.374878,2.265345 -3.385255,2.259351 -0.01038,-0.006 0.270712,-4.050326 0.26584,-4.061275 -0.0049,-0.01095 -3.197365,-2.50967 -3.194871,-2.521391 0.0025,-0.01172 3.935743,-0.994157 3.94465,-1.002174 0.0089,-0.008 1.398799,-3.816406 1.410716,-3.817656 0.01192,-0.0012 2.161712,3.435903 2.172088,3.441897 0.01038,0.006 4.061871,0.151002 4.066742,0.16195 0.0049,0.01095 -2.599732,3.117662 -2.602226,3.129383 -0.0025,0.01172 1.111576,3.909731 1.102669,3.917747 z"
       transform="matrix(0.44991781,0,0,0.41713779,74.034763,43.156551)" /><path
       style="fill:#ffffff;stroke:#215047;stroke-width:0.323001;stroke-linecap:round;stroke-linejoin:round;stroke-miterlimit:0;paint-order:markers fill stroke"
       id="path389"
       d="m 55.976362,80.130521 c -0.0089,0.008 -3.768435,-1.509082 -3.780353,-1.507832 -0.01192,0.0012 -3.374878,2.265345 -3.385255,2.259351 -0.01038,-0.006 0.270712,-4.050326 0.26584,-4.061275 -0.0049,-0.01095 -3.197365,-2.50967 -3.194871,-2.521391 0.0025,-0.01172 3.935743,-0.994157 3.94465,-1.002174 0.0089,-0.008 1.398799,-3.816406 1.410716,-3.817656 0.01192,-0.0012 2.161712,3.435903 2.172088,3.441897 0.01038,0.006 4.061871,0.151002 4.066742,0.16195 0.0049,0.01095 -2.599732,3.117662 -2.602226,3.129383 -0.0025,0.01172 1.111576,3.909731 1.102669,3.917747 z"
       transform="matrix(0.44991781,0,0,0.41713779,14.357098,54.545418)" /><path
       style="fill:#ffffff;stroke:#215047;stroke-width:0.323001;stroke-linecap:round;stroke-linejoin:round;stroke-miterlimit:0;paint-order:markers fill stroke"
       id="path390"
       d="m 55.976362,80.130521 c -0.0089,0.008 -3.768435,-1.509082 -3.780353,-1.507832 -0.01192,0.0012 -3.374878,2.265345 -3.385255,2.259351 -0.01038,-0.006 0.270712,-4.050326 0.26584,-4.061275 -0.0049,-0.01095 -3.197365,-2.50967 -3.194871,-2.521391 0.0025,-0.01172 3.935743,-0.994157 3.94465,-1.002174 0.0089,-0.008 1.398799,-3.816406 1.410716,-3.817656 0.01192,-0.0012 2.161712,3.435903 2.172088,3.441897 0.01038,0.006 4.061871,0.151002 4.066742,0.16195 0.0049,0.01095 -2.599732,3.117662 -2.602226,3.129383 -0.0025,0.01172 1.111576,3.909731 1.102669,3.917747 z"
       transform="matrix(0.44991781,0,0,0.41713779,44.423708,63.656512)" /><path
       style="fill:#ffffff;stroke:#215047;stroke-width:0.323001;stroke-linecap:round;stroke-linejoin:round;stroke-miterlimit:0;paint-order:markers fill stroke"
       id="path391"
       d="m 55.976362,80.130521 c -0.0089,0.008 -3.768435,-1.509082 -3.780353,-1.507832 -0.01192,0.0012 -3.374878,2.265345 -3.385255,2.259351 -0.01038,-0.006 0.270712,-4.050326 0.26584,-4.061275 -0.0049,-0.01095 -3.197365,-2.50967 -3.194871,-2.521391 0.0025,-0.01172 3.935743,-0.994157 3.94465,-1.002174 0.0089,-0.008 1.398799,-3.816406 1.410716,-3.817656 0.01192,-0.0012 2.161712,3.435903 2.172088,3.441897 0.01038,0.006 4.061871,0.151002 4.066742,0.16195 0.0049,0.01095 -2.599732,3.117662 -2.602226,3.129383 -0.0025,0.01172 1.111576,3.909731 1.102669,3.917747 z"
       transform="matrix(0.44991781,0,0,0.41713779,143.27908,54.089863)" /><path
       style="fill:#ffffff;stroke:#215047;stroke-width:0.323001;stroke-linecap:round;stroke-linejoin:round;stroke-miterlimit:0;paint-order:markers fill stroke"
       id="path392"
       d="m 55.976362,80.130521 c -0.0089,0.008 -3.768435,-1.509082 -3.780353,-1.507832 -0.01192,0.0012 -3.374878,2.265345 -3.385255,2.259351 -0.01038,-0.006 0.270712,-4.050326 0.26584,-4.061275 -0.0049,-0.01095 -3.197365,-2.50967 -3.194871,-2.521391 0.0025,-0.01172 3.935743,-0.994157 3.94465,-1.002174 0.0089,-0.008 1.398799,-3.816406 1.410716,-3.817656 0.01192,-0.0012 2.161712,3.435903 2.172088,3.441897 0.01038,0.006 4.061871,0.151002 4.066742,0.16195 0.0049,0.01095 -2.599732,3.117662 -2.602226,3.129383 -0.0025,0.01172 1.111576,3.909731 1.102669,3.917747 z"
       transform="matrix(0.44991781,0,0,0.41713779,95.445834,50.445426)" /><path
       style="fill:#ffffff;stroke:#215047;stroke-width:0.323001;stroke-linecap:round;stroke-linejoin:round;stroke-miterlimit:0;paint-order:markers fill stroke"
       id="path393"
       d="m 55.976362,80.130521 c -0.0089,0.008 -3.768435,-1.509082 -3.780353,-1.507832 -0.01192,0.0012 -3.374878,2.265345 -3.385255,2.259351 -0.01038,-0.006 0.270712,-4.050326 0.26584,-4.061275 -0.0049,-0.01095 -3.197365,-2.50967 -3.194871,-2.521391 0.0025,-0.01172 3.935743,-0.994157 3.94465,-1.002174 0.0089,-0.008 1.398799,-3.816406 1.410716,-3.817656 0.01192,-0.0012 2.161712,3.435903 2.172088,3.441897 0.01038,0.006 4.061871,0.151002 4.066742,0.16195 0.0049,0.01095 -2.599732,3.117662 -2.602226,3.129383 -0.0025,0.01172 1.111576,3.909731 1.102669,3.917747 z"
       transform="matrix(0.44991781,0,0,0.41713779,143.27908,54.089863)" /><path
       style="fill:#ffffff;stroke:#215047;stroke-width:0.323001;stroke-linecap:round;stroke-linejoin:round;stroke-miterlimit:0;paint-order:markers fill stroke"
       id="path394"
       d="m 55.976362,80.130521 c -0.0089,0.008 -3.768435,-1.509082 -3.780353,-1.507832 -0.01192,0.0012 -3.374878,2.265345 -3.385255,2.259351 -0.01038,-0.006 0.270712,-4.050326 0.26584,-4.061275 -0.0049,-0.01095 -3.197365,-2.50967 -3.194871,-2.521391 0.0025,-0.01172 3.935743,-0.994157 3.94465,-1.002174 0.0089,-0.008 1.398799,-3.816406 1.410716,-3.817656 0.01192,-0.0012 2.161712,3.435903 2.172088,3.441897 0.01038,0.006 4.061871,0.151002 4.066742,0.16195 0.0049,0.01095 -2.599732,3.117662 -2.602226,3.129383 -0.0025,0.01172 1.111576,3.909731 1.102669,3.917747 z"
       transform="matrix(0.44991781,0,0,0.41713779,137.81242,66.845395)" /><path
       style="fill:#ffffff;stroke:#215047;stroke-width:0.323001;stroke-linecap:round;stroke-linejoin:round;stroke-miterlimit:0;paint-order:markers fill stroke"
       id="path395"
       d="m 55.976362,80.130521 c -0.0089,0.008 -3.768435,-1.509082 -3.780353,-1.507832 -0.01192,0.0012 -3.374878,2.265345 -3.385255,2.259351 -0.01038,-0.006 0.270712,-4.050326 0.26584,-4.061275 -0.0049,-0.01095 -3.197365,-2.50967 -3.194871,-2.521391 0.0025,-0.01172 3.935743,-0.994157 3.94465,-1.002174 0.0089,-0.008 1.398799,-3.816406 1.410716,-3.817656 0.01192,-0.0012 2.161712,3.435903 2.172088,3.441897 0.01038,0.006 4.061871,0.151002 4.066742,0.16195 0.0049,0.01095 -2.599732,3.117662 -2.602226,3.129383 -0.0025,0.01172 1.111576,3.909731 1.102669,3.917747 z"
       transform="matrix(0.44991781,0,0,0.41713779,44.423708,63.656512)" /><path
       style="fill:#ffffff;stroke:#215047;stroke-width:0.323001;stroke-linecap:round;stroke-linejoin:round;stroke-miterlimit:0;paint-order:markers fill stroke"
       id="path396"
       d="m 26.365305,91.974942 c -0.02471,0 -4.009102,-7.344824 -4.026573,-7.362295 -0.01747,-0.01747 -7.362294,-4.001865 -7.362294,-4.026572 0,-0.02471 7.344824,-4.009102 7.362294,-4.026573 0.01747,-0.01747 4.001866,-7.362295 4.026573,-7.362295 0.02471,0 4.009102,7.344825 4.026573,7.362295 0.01747,0.01747 7.362294,4.001866 7.362294,4.026573 0,0.02471 -7.344824,4.009102 -7.362294,4.026573 -0.01747,0.01747 -4.001866,7.362294 -4.026573,7.362294 z"
       transform="matrix(0.2549785,0,0,0.2549785,46.021778,56.119977)" /><path
       style="fill:#ffffff;stroke:#215047;stroke-width:0.323001;stroke-linecap:round;stroke-linejoin:round;stroke-miterlimit:0;paint-order:markers fill stroke"
       id="path397"
       d="m 55.976362,80.130521 c -0.0089,0.008 -3.768435,-1.509082 -3.780353,-1.507832 -0.01192,0.0012 -3.374878,2.265345 -3.385255,2.259351 -0.01038,-0.006 0.270712,-4.050326 0.26584,-4.061275 -0.0049,-0.01095 -3.197365,-2.50967 -3.194871,-2.521391 0.0025,-0.01172 3.935743,-0.994157 3.94465,-1.002174 0.0089,-0.008 1.398799,-3.816406 1.410716,-3.817656 0.01192,-0.0012 2.161712,3.435903 2.172088,3.441897 0.01038,0.006 4.061871,0.151002 4.066742,0.16195 0.0049,0.01095 -2.599732,3.117662 -2.602226,3.129383 -0.0025,0.01172 1.111576,3.909731 1.102669,3.917747 z"
       transform="matrix(0.44991781,0,0,0.41713779,14.357098,54.545418)" /><path
       style="fill:#ffffff;stroke:#215047;stroke-width:0.323001;stroke-linecap:round;stroke-linejoin:round;stroke-miterlimit:0;paint-order:markers fill stroke"
       id="path398"
       d="m 26.365305,91.974942 c -0.02471,0 -4.009102,-7.344824 -4.026573,-7.362295 -0.01747,-0.01747 -7.362294,-4.001865 -7.362294,-4.026572 0,-0.02471 7.344824,-4.009102 7.362294,-4.026573 0.01747,-0.01747 4.001866,-7.362295 4.026573,-7.362295 0.02471,0 4.009102,7.344825 4.026573,7.362295 0.01747,0.01747 7.362294,4.001866 7.362294,4.026573 0,0.02471 -7.344824,4.009102 -7.362294,4.026573 -0.01747,0.01747 -4.001866,7.362294 -4.026573,7.362294 z"
       transform="matrix(0.2549785,0,0,0.2549785,15.499612,80.719927)" /><path
       style="fill:#ffffff;stroke:#215047;stroke-width:0.323001;stroke-linecap:round;stroke-linejoin:round;stroke-miterlimit:0;paint-order:markers fill stroke"
       id="path399"
       d="m 55.976362,80.130521 c -0.0089,0.008 -3.768435,-1.509082 -3.780353,-1.507832 -0.01192,0.0012 -3.374878,2.265345 -3.385255,2.259351 -0.01038,-0.006 0.270712,-4.050326 0.26584,-4.061275 -0.0049,-0.01095 -3.197365,-2.50967 -3.194871,-2.521391 0.0025,-0.01172 3.935743,-0.994157 3.94465,-1.002174 0.0089,-0.008 1.398799,-3.816406 1.410716,-3.817656 0.01192,-0.0012 2.161712,3.435903 2.172088,3.441897 0.01038,0.006 4.061871,0.151002 4.066742,0.16195 0.0049,0.01095 -2.599732,3.117662 -2.602226,3.129383 -0.0025,0.01172 1.111576,3.909731 1.102669,3.917747 z"
       transform="matrix(0.44991781,0,0,0.41713779,-12.065079,43.612106)" /></g></svg>
